# Blender 3.4.1
# www.blender.org
mtllib Pistol.mtl
g Cylinder_Cylinder
v -0.207388 0.000000 -0.100000
v 0.216957 -0.000000 -0.068075
v -0.207388 -0.038268 -0.092388
v 0.216957 -0.026051 -0.062893
v -0.207388 -0.070711 -0.070711
v 0.216957 -0.048136 -0.048136
v -0.207388 -0.092388 -0.038268
v 0.216957 -0.062893 -0.026051
v -0.207388 -0.100000 0.000000
v 0.216957 -0.068075 0.000000
v -0.207388 -0.092388 0.038268
v 0.216957 -0.062893 0.026051
v -0.207388 -0.070711 0.070711
v 0.216957 -0.048136 0.048136
v -0.207388 -0.038268 0.092388
v 0.216957 -0.026051 0.062893
v -0.207388 0.000000 0.100000
v 0.216957 -0.000000 0.068075
v -0.207388 0.038268 0.092388
v 0.216957 0.026051 0.062893
v -0.207388 0.070711 0.070711
v 0.216957 0.048136 0.048136
v -0.207388 0.092388 0.038268
v 0.216957 0.062893 0.026051
v -0.207388 0.100000 0.000000
v 0.216957 0.068075 0.000000
v -0.207388 0.092388 -0.038268
v 0.216957 0.062893 -0.026051
v -0.207388 0.070711 -0.070711
v 0.216957 0.048136 -0.048136
v -0.207388 0.038268 -0.092388
v 0.216957 0.026051 -0.062893
v -0.090721 0.000000 -0.100000
v 0.202293 -0.000000 -0.100000
v 0.202293 -0.038268 -0.092388
v -0.090721 -0.038268 -0.092388
v 0.202293 -0.070711 -0.070711
v -0.090721 -0.070711 -0.070711
v 0.202293 -0.092388 -0.038268
v -0.090721 -0.092388 -0.038268
v 0.202293 -0.100000 0.000000
v -0.090721 -0.100000 0.000000
v 0.202293 -0.092388 0.038268
v -0.090721 -0.092388 0.038268
v 0.202293 -0.070711 0.070711
v -0.090721 -0.070711 0.070711
v 0.202293 -0.038268 0.092388
v -0.090721 -0.038268 0.092388
v 0.202293 -0.000000 0.100000
v -0.090721 0.000000 0.100000
v 0.202293 0.038268 0.092388
v -0.090721 0.038268 0.092388
v 0.202293 0.070711 0.070711
v -0.090721 0.070711 0.070711
v 0.202293 0.092388 0.038268
v -0.090721 0.092388 0.038268
v 0.202293 0.100000 0.000000
v -0.090721 0.100000 0.000000
v 0.202293 0.092388 -0.038268
v -0.090721 0.092388 -0.038268
v 0.202293 0.070711 -0.070711
v -0.090721 0.070711 -0.070711
v 0.202293 0.038268 -0.092388
v -0.090721 0.038268 -0.092388
v -0.121636 -0.208277 -0.070711
v -0.207388 -0.208277 -0.070711
v -0.207388 -0.229954 -0.038268
v -0.121636 -0.229954 -0.038268
v -0.207388 -0.237566 0.000000
v -0.121636 -0.237566 0.000000
v -0.207388 -0.229954 0.038268
v -0.121636 -0.229954 0.038268
v -0.207388 -0.208277 0.070711
v -0.121636 -0.208277 0.070711
v 0.216957 -0.038268 -0.092388
v 0.216957 -0.000000 -0.100000
v 0.216957 -0.070711 -0.070711
v 0.216957 -0.092388 -0.038268
v 0.216957 -0.100000 0.000000
v 0.216957 -0.092388 0.038268
v 0.216957 -0.070711 0.070711
v 0.216957 -0.038268 0.092388
v 0.216957 -0.000000 0.100000
v 0.216957 0.038268 0.092388
v 0.216957 0.070711 0.070711
v 0.216957 0.092388 0.038268
v 0.216957 0.100000 0.000000
v 0.216957 0.092388 -0.038268
v 0.216957 0.070711 -0.070711
v 0.216957 0.038268 -0.092388
v -0.046946 -0.026051 -0.062893
v -0.046946 0.000000 -0.068075
v -0.046946 -0.048136 -0.048136
v -0.046946 -0.062893 -0.026051
v -0.046946 -0.068075 0.000000
v -0.046946 -0.062893 0.026051
v -0.046946 -0.048136 0.048136
v -0.046946 -0.026051 0.062893
v -0.046946 0.000000 0.068075
v -0.046946 0.026051 0.062893
v -0.046946 0.048136 0.048136
v -0.046946 0.062893 0.026051
v -0.046946 0.068075 0.000000
v -0.046946 0.062893 -0.026051
v -0.046946 0.048136 -0.048136
v -0.046946 0.026051 -0.062893
v -0.207388 -0.147613 0.038268
v -0.121514 -0.147694 -0.038268
v -0.121514 -0.155349 0.000000
v -0.207388 -0.139494 0.070711
v -0.121514 -0.139494 -0.070711
v -0.207388 -0.139494 -0.070711
v -0.207388 -0.155225 0.000000
v -0.207388 -0.147613 -0.038268
v -0.121514 -0.147694 0.038268
v -0.121514 -0.139494 0.070711
v 0.006950 0.000000 -0.100000
v 0.104621 -0.000000 -0.100000
v 0.104621 -0.038268 -0.092388
v 0.006950 -0.038268 -0.092388
v 0.104621 -0.070711 -0.070711
v 0.006950 -0.070711 -0.070711
v 0.104621 -0.092388 -0.038268
v 0.006950 -0.092388 -0.038268
v 0.104621 -0.100000 0.000000
v 0.006950 -0.100000 0.000000
v 0.104621 -0.092388 0.038268
v 0.006950 -0.092388 0.038268
v 0.104621 -0.070711 0.070711
v 0.006950 -0.070711 0.070711
v 0.104621 -0.038268 0.092388
v 0.006950 -0.038268 0.092388
v 0.104621 -0.000000 0.100000
v 0.006950 0.000000 0.100000
v 0.104621 0.038268 0.092388
v 0.006950 0.038268 0.092388
v 0.104621 0.070711 0.070711
v 0.006950 0.070711 0.070711
v 0.104621 0.092388 0.038268
v 0.006950 0.092388 0.038268
v 0.104621 0.100000 0.000000
v 0.006950 0.100000 0.000000
v 0.104621 0.092388 -0.038268
v 0.006950 0.092388 -0.038268
v 0.104621 0.070711 -0.070711
v 0.006950 0.070711 -0.070711
v 0.104621 0.038268 -0.092388
v 0.006950 0.038268 -0.092388
v -0.041885 -0.038268 -0.092388
v -0.041885 -0.070711 -0.070711
v -0.041885 -0.092388 -0.038268
v -0.041885 -0.100000 0.000000
v -0.041885 -0.092388 0.038268
v -0.041885 -0.070711 0.070711
v -0.041885 -0.038268 0.092388
v -0.041885 0.000000 0.100000
v -0.041885 0.038268 0.092388
v -0.041885 0.070711 0.070711
v -0.041885 0.092388 0.038268
v -0.041885 0.100000 0.000000
v -0.041885 0.092388 -0.038268
v -0.041885 0.070711 -0.070711
v -0.041885 0.038268 -0.092388
v -0.041885 0.000000 -0.100000
v 0.006950 -0.154774 -0.018486
v 0.006950 -0.155409 0.000000
v 0.006950 -0.154774 0.018486
v -0.020954 -0.154774 -0.018486
v -0.020344 -0.155409 0.000000
v -0.020954 -0.154774 0.018486
v -0.032613 -0.099425 -0.018486
v -0.033768 -0.113690 -0.018486
v -0.033811 -0.127385 -0.018486
v -0.032613 -0.140794 -0.018486
v -0.032209 -0.141429 0.000000
v -0.033990 -0.128020 0.000000
v -0.033768 -0.114325 0.000000
v -0.032613 -0.100565 0.000000
v -0.032613 -0.099425 0.018486
v -0.033768 -0.113690 0.018486
v -0.033811 -0.127385 0.018486
v -0.032613 -0.140794 0.018486
v -0.007744 -0.140794 0.018486
v -0.012879 -0.127385 0.018486
v -0.012519 -0.113690 0.018486
v -0.001268 -0.099425 0.018486
v -0.001268 -0.099425 -0.018486
v -0.012519 -0.113690 -0.018486
v -0.012879 -0.127385 -0.018486
v -0.007744 -0.140794 -0.018486
v -0.007744 -0.141429 0.000000
v -0.013513 -0.128020 0.000000
v -0.013593 -0.114325 0.000000
v -0.007744 -0.100565 0.000000
v -0.252738 0.000000 -0.100000
v -0.252738 -0.038268 -0.092388
v -0.252738 -0.070711 -0.070711
v -0.252738 -0.092388 -0.038268
v -0.252738 -0.100000 0.000000
v -0.252738 -0.092388 0.038268
v -0.252738 -0.070711 0.070711
v -0.252738 -0.038268 0.092388
v -0.252738 0.000000 0.100000
v -0.252738 0.038268 0.092388
v -0.252738 0.070711 0.070711
v -0.252738 0.092388 0.038268
v -0.252738 0.100000 0.000000
v -0.252738 0.092388 -0.038268
v -0.252738 0.070711 -0.070711
v -0.252738 0.038268 -0.092388
vn -0.0000 -0.1951 -0.9808
vn -0.0000 -0.5556 -0.8315
vn -0.0000 -0.8315 -0.5556
vn -0.0000 -0.9808 -0.1951
vn -0.0000 -0.9808 0.1951
vn -0.0000 -0.8315 0.5556
vn -0.0000 -0.5556 0.8315
vn -0.0000 -0.1951 0.9808
vn -0.0000 0.1951 0.9808
vn -0.0000 0.5556 0.8315
vn -0.0000 0.8315 0.5556
vn -0.0000 0.9808 0.1951
vn -0.0000 0.9808 -0.1951
vn -0.0000 0.8315 -0.5556
vn -0.0000 0.1951 -0.9808
vn -0.0000 0.5556 -0.8315
vn -1.0000 -0.0000 -0.0000
vn -0.0000 -0.0000 -1.0000
vn 1.0000 -0.0015 -0.0003
vn 1.0000 -0.0015 0.0003
vn 1.0000 -0.0016 -0.0007
vn -0.0000 -0.0000 1.0000
vn 1.0000 -0.0016 0.0007
vn 1.0000 -0.0000 -0.0000
vn 0.8776 -0.4355 0.2005
vn 0.8776 -0.4355 -0.2005
vn 0.8697 -0.4840 0.0966
vn 0.8697 -0.4840 -0.0966
vn -0.7652 -0.6438 -0.0012
vn -0.0000 -0.9994 -0.0343
vn -0.0000 -0.9994 0.0343
vn 0.6891 0.7243 -0.0249
vn 0.6891 0.7243 0.0249
vn -0.7652 -0.6438 0.0012
vn -0.2357 -0.9605 0.1481
vn -0.9966 0.0822 -0.0039
vn -0.9999 0.0097 0.0045
vn -0.9939 -0.1104 -0.0022
vn 0.2135 -0.9689 -0.1251
vn 0.8443 -0.5152 0.1477
vn 0.9989 -0.0102 0.0458
vn 0.9260 0.3765 0.0288
vn 0.2135 -0.9689 0.1251
vn 0.8443 -0.5152 -0.1477
vn 0.9989 -0.0102 -0.0458
vn 0.9260 0.3765 -0.0288
vn -0.0000 -0.9422 -0.3352
vn -0.2357 -0.9605 -0.1481
vn -0.9966 0.0822 0.0039
vn -0.9999 0.0097 -0.0045
vn -0.9939 -0.1104 0.0022
vn -0.0000 -0.9422 0.3352
vt 1.000000 0.500000
vt 0.000000 0.500000
vt 0.250000 0.433340
vt 0.937500 0.500000
vt 0.320161 0.419384
vt 0.919706 0.419706
vt 0.875000 0.500000
vt 0.379641 0.379641
vt 0.971731 0.341844
vt 0.419384 0.320161
vt 0.990000 0.250000
vt 0.433340 0.250000
vt 0.971731 0.158156
vt 0.419384 0.179839
vt 0.919706 0.080294
vt 0.625000 0.500000
vt 0.379641 0.120359
vt 0.562500 0.500000
vt 0.320161 0.080616
vt 0.500000 0.500000
vt 0.250000 0.066660
vt 0.437500 0.500000
vt 0.179839 0.080616
vt 0.375000 0.500000
vt 0.120359 0.120359
vt 0.312500 0.500000
vt 0.080616 0.179839
vt 0.250000 0.500000
vt 0.066660 0.250000
vt 0.187500 0.500000
vt 0.080616 0.320161
vt 0.125000 0.500000
vt 0.120359 0.379641
vt 0.062500 0.500000
vt 0.179839 0.419384
vt 0.000000 0.666667
vt 1.000000 0.666667
vt 0.000000 0.833333
vt 1.000000 0.833333
vt 0.937500 0.833333
vt 0.937500 0.666667
vt 0.875000 0.833333
vt 0.875000 0.666667
vt 0.812500 0.833333
vt 0.812500 0.666667
vt 0.750000 0.833333
vt 0.750000 0.666667
vt 0.687500 0.833333
vt 0.687500 0.666667
vt 0.625000 0.833333
vt 0.625000 0.666667
vt 0.562500 0.833333
vt 0.562500 0.666667
vt 0.500000 0.833333
vt 0.500000 0.666667
vt 0.437500 0.833333
vt 0.437500 0.666667
vt 0.375000 0.833333
vt 0.375000 0.666667
vt 0.312500 0.833333
vt 0.312500 0.666667
vt 0.250000 0.833333
vt 0.250000 0.666667
vt 0.187500 0.833333
vt 0.187500 0.666667
vt 0.125000 0.833333
vt 0.125000 0.666667
vt 0.062500 0.833333
vt 0.062500 0.666667
vt 0.875000 0.666667
vt 0.875000 0.500000
vt 0.919706 0.419706
vt 0.812500 0.500000
vt 0.971731 0.341844
vt 0.812500 0.666667
vt 0.750000 0.500000
vt 0.990000 0.250000
vt 0.750000 0.666667
vt 0.971731 0.158156
vt 0.687500 0.500000
vt 0.687500 0.666667
vt 0.919706 0.080294
vt 0.625000 0.500000
vt 0.625000 0.666667
vt 0.937500 1.000000
vt 0.341844 0.471731
vt 1.000000 1.000000
vt 0.000000 1.000000
vt 0.250000 0.490000
vt 0.875000 1.000000
vt 0.419706 0.419706
vt 0.812500 1.000000
vt 0.471731 0.341844
vt 0.750000 1.000000
vt 0.490000 0.250000
vt 0.687500 1.000000
vt 0.471731 0.158156
vt 0.625000 1.000000
vt 0.419706 0.080294
vt 0.562500 1.000000
vt 0.341844 0.028269
vt 0.500000 1.000000
vt 0.250000 0.010000
vt 0.437500 1.000000
vt 0.158156 0.028269
vt 0.375000 1.000000
vt 0.080294 0.080294
vt 0.312500 1.000000
vt 0.028269 0.158156
vt 0.250000 1.000000
vt 0.010000 0.250000
vt 0.187500 1.000000
vt 0.028269 0.341844
vt 0.125000 1.000000
vt 0.080294 0.419706
vt 0.062500 1.000000
vt 0.158156 0.471731
vt 0.320161 0.419384
vt 0.250000 0.433340
vt 0.379641 0.379641
vt 0.419384 0.320161
vt 0.433340 0.250000
vt 0.419384 0.179839
vt 0.379641 0.120359
vt 0.320161 0.080616
vt 0.250000 0.066660
vt 0.179839 0.080616
vt 0.120359 0.120359
vt 0.080616 0.179839
vt 0.066660 0.250000
vt 0.080616 0.320161
vt 0.120359 0.379641
vt 0.179839 0.419384
vt 0.971731 0.158156
vt 0.812500 0.666667
vt 0.750000 0.666667
vt 0.625000 0.500000
vt 0.919706 0.080294
vt 0.875000 0.666667
vt 0.919706 0.419706
vt 0.875000 0.500000
vt 0.990000 0.250000
vt 0.971731 0.341844
vt 0.687500 0.666667
vt 0.625000 0.666667
vt 1.000000 0.722222
vt 0.000000 0.722222
vt 1.000000 0.777778
vt 0.000000 0.777778
vt 0.937500 0.777778
vt 0.937500 0.722222
vt 0.875000 0.777778
vt 0.875000 0.722222
vt 0.812500 0.777778
vt 0.812500 0.722222
vt 0.750000 0.777778
vt 0.750000 0.722222
vt 0.687500 0.777778
vt 0.687500 0.722222
vt 0.625000 0.777778
vt 0.625000 0.722222
vt 0.562500 0.777778
vt 0.562500 0.722222
vt 0.500000 0.777778
vt 0.500000 0.722222
vt 0.437500 0.777778
vt 0.437500 0.722222
vt 0.375000 0.777778
vt 0.375000 0.722222
vt 0.312500 0.777778
vt 0.312500 0.722222
vt 0.250000 0.777778
vt 0.250000 0.722222
vt 0.187500 0.777778
vt 0.187500 0.722222
vt 0.125000 0.777778
vt 0.125000 0.722222
vt 0.062500 0.777778
vt 0.062500 0.722222
vt 0.937500 0.694444
vt 0.875000 0.694444
vt 0.812500 0.694444
vt 0.750000 0.694444
vt 0.687500 0.694444
vt 0.625000 0.694444
vt 0.562500 0.694444
vt 0.500000 0.694444
vt 0.437500 0.694444
vt 0.375000 0.694444
vt 0.312500 0.694444
vt 0.250000 0.694444
vt 0.187500 0.694444
vt 0.125000 0.694444
vt 0.062500 0.694444
vt 0.000000 0.694444
vt 1.000000 0.694444
vt 0.812500 0.722222
vt 0.750000 0.722222
vt 0.687500 0.722222
vt 0.812500 0.694444
vt 0.750000 0.694444
vt 0.687500 0.694444
vt 0.812500 0.694444
vt 0.812500 0.694444
vt 0.812500 0.694444
vt 0.812500 0.694444
vt 0.750000 0.694444
vt 0.750000 0.694444
vt 0.750000 0.694444
vt 0.750000 0.694444
vt 0.687500 0.694444
vt 0.687500 0.694444
vt 0.687500 0.694444
vt 0.687500 0.694444
vt 0.687500 0.722222
vt 0.687500 0.722222
vt 0.687500 0.722222
vt 0.687500 0.722222
vt 0.812500 0.722222
vt 0.812500 0.722222
vt 0.812500 0.722222
vt 0.812500 0.722222
vt 0.750000 0.722222
vt 0.750000 0.722222
vt 0.750000 0.722222
vt 0.750000 0.722222
vt 0.750000 0.490000
vt 1.000000 0.500000
vt 0.000000 0.500000
vt 0.841844 0.471731
vt 0.937500 0.500000
vt 0.919706 0.419706
vt 0.875000 0.500000
vt 0.971731 0.341844
vt 0.990000 0.250000
vt 0.971731 0.158156
vt 0.919706 0.080294
vt 0.625000 0.500000
vt 0.841844 0.028269
vt 0.562500 0.500000
vt 0.750000 0.010000
vt 0.500000 0.500000
vt 0.658156 0.028269
vt 0.437500 0.500000
vt 0.580294 0.080294
vt 0.375000 0.500000
vt 0.528269 0.158156
vt 0.312500 0.500000
vt 0.510000 0.250000
vt 0.250000 0.500000
vt 0.528269 0.341844
vt 0.187500 0.500000
vt 0.580294 0.419706
vt 0.125000 0.500000
vt 0.658156 0.471731
vt 0.062500 0.500000
s 0
usemtl Material
f 34/39/1 76/87/1 75/85/1 35/40/1
f 35/40/2 75/85/2 77/90/2 37/42/2
f 37/42/3 77/90/3 78/92/3 39/44/3
f 39/44/4 78/92/4 79/94/4 41/46/4
f 41/46/5 79/94/5 80/96/5 43/48/5
f 43/48/6 80/96/6 81/98/6 45/50/6
f 45/50/7 81/98/7 82/100/7 47/52/7
f 47/52/8 82/100/8 83/102/8 49/54/8
f 49/54/9 83/102/9 84/104/9 51/56/9
f 51/56/10 84/104/10 85/106/10 53/58/10
f 53/58/11 85/106/11 86/108/11 55/60/11
f 55/60/12 86/108/12 87/110/12 57/62/12
f 57/62/13 87/110/13 88/112/13 59/64/13
f 59/64/14 88/112/14 89/114/14 61/66/14
f 18/21/15 16/19/15 98/125/15 99/126/15
f 61/66/16 89/114/16 90/116/16 63/68/16
f 63/68/15 90/116/15 76/88/15 34/38/15
f 5/6/3 7/9/3 198/234/3 197/232/3
f 31/34/15 64/69/15 33/36/15 1/2/15
f 147/178/15 63/68/15 34/38/15 118/149/15
f 29/32/16 62/67/16 64/69/16 31/34/16
f 145/176/16 61/66/16 63/68/16 147/178/16
f 27/30/14 60/65/14 62/67/14 29/32/14
f 143/174/14 59/64/14 61/66/14 145/176/14
f 25/28/13 58/63/13 60/65/13 27/30/13
f 141/172/13 57/62/13 59/64/13 143/174/13
f 23/26/12 56/61/12 58/63/12 25/28/12
f 139/170/12 55/60/12 57/62/12 141/172/12
f 21/24/11 54/59/11 56/61/11 23/26/11
f 137/168/11 53/58/11 55/60/11 139/170/11
f 19/22/10 52/57/10 54/59/10 21/24/10
f 135/166/10 51/56/10 53/58/10 137/168/10
f 17/20/9 50/55/9 52/57/9 19/22/9
f 133/164/9 49/54/9 51/56/9 135/166/9
f 15/18/8 48/53/8 50/55/8 17/20/8
f 131/162/8 47/52/8 49/54/8 133/164/8
f 13/16/7 46/51/7 48/53/7 15/18/7
f 129/160/7 45/50/7 47/52/7 131/162/7
f 107/134/17 113/142/17 69/77/17 71/79/17
f 127/158/6 43/48/6 45/50/6 129/160/6
f 112/141/18 111/139/18 65/70/18 66/71/18
f 125/156/5 41/46/5 43/48/5 127/158/5
f 110/138/17 107/134/17 71/79/17 73/82/17
f 123/154/4 39/44/4 41/46/4 125/156/4
f 108/135/19 109/136/19 70/78/19 68/75/19
f 121/152/3 37/42/3 39/44/3 123/154/3
f 3/4/2 36/41/2 38/43/2 5/7/2
f 119/150/2 35/40/2 37/42/2 121/152/2
f 1/1/1 33/37/1 36/41/1 3/4/1
f 118/148/1 34/39/1 35/40/1 119/150/1
f 71/80/6 72/81/6 74/84/6 73/83/6
f 69/76/5 70/78/5 72/81/5 71/80/5
f 67/73/4 68/75/4 70/78/4 69/76/4
f 66/71/3 65/70/3 68/75/3 67/73/3
f 113/142/17 114/143/17 67/74/17 69/77/17
f 109/136/20 115/144/20 72/81/20 70/78/20
f 114/143/17 112/140/17 66/72/17 67/74/17
f 111/139/21 108/135/21 68/75/21 65/70/21
f 116/145/22 110/137/22 73/83/22 74/84/22
f 115/144/23 116/145/23 74/84/23 72/81/23
f 2/3/24 4/5/24 75/86/24 76/89/24
f 4/5/24 6/8/24 77/91/24 75/86/24
f 6/8/24 8/10/24 78/93/24 77/91/24
f 8/10/24 10/12/24 79/95/24 78/93/24
f 10/12/24 12/14/24 80/97/24 79/95/24
f 12/14/24 14/17/24 81/99/24 80/97/24
f 14/17/24 16/19/24 82/101/24 81/99/24
f 16/19/24 18/21/24 83/103/24 82/101/24
f 18/21/24 20/23/24 84/105/24 83/103/24
f 20/23/24 22/25/24 85/107/24 84/105/24
f 22/25/24 24/27/24 86/109/24 85/107/24
f 24/27/24 26/29/24 87/111/24 86/109/24
f 26/29/24 28/31/24 88/113/24 87/111/24
f 28/31/24 30/33/24 89/115/24 88/113/24
f 30/33/24 32/35/24 90/117/24 89/115/24
f 32/35/24 2/3/24 76/89/24 90/117/24
f 91/118/24 92/119/24 106/133/24 105/132/24 104/131/24 103/130/24 102/129/24 101/128/24 100/127/24 99/126/24 98/125/24 97/124/24 96/123/24 95/122/24 94/121/24 93/120/24
f 4/5/9 2/3/9 92/119/9 91/118/9
f 2/3/8 32/35/8 106/133/8 92/119/8
f 20/23/1 18/21/1 99/126/1 100/127/1
f 6/8/10 4/5/10 91/118/10 93/120/10
f 22/25/2 20/23/2 100/127/2 101/128/2
f 8/10/11 6/8/11 93/120/11 94/121/11
f 24/27/3 22/25/3 101/128/3 102/129/3
f 10/12/12 8/10/12 94/121/12 95/122/12
f 26/29/4 24/27/4 102/129/4 103/130/4
f 12/14/13 10/12/13 95/122/13 96/123/13
f 28/31/5 26/29/5 103/130/5 104/131/5
f 14/17/14 12/14/14 96/123/14 97/124/14
f 30/33/6 28/31/6 104/131/6 105/132/6
f 16/19/16 14/17/16 97/124/16 98/125/16
f 32/35/7 30/33/7 105/132/7 106/133/7
f 44/49/25 46/51/25 116/145/25 115/144/25
f 46/51/22 13/16/22 110/137/22 116/145/22
f 38/43/26 40/45/26 108/135/26 111/139/26
f 7/9/17 5/6/17 112/140/17 114/143/17
f 42/47/27 44/49/27 115/144/27 109/136/27
f 9/11/17 7/9/17 114/143/17 113/142/17
f 40/45/28 42/47/28 109/136/28 108/135/28
f 13/15/17 11/13/17 107/134/17 110/138/17
f 5/7/18 38/43/18 111/139/18 112/141/18
f 11/13/17 9/11/17 113/142/17 107/134/17
f 164/196/1 117/146/1 120/151/1 149/180/1
f 117/146/1 118/148/1 119/150/1 120/151/1
f 149/180/2 120/151/2 122/153/2 150/181/2
f 120/151/2 119/150/2 121/152/2 122/153/2
f 150/181/3 122/153/3 124/155/3 151/182/3
f 122/153/3 121/152/3 123/154/3 124/155/3
f 183/215/22 182/214/22 170/202/22 167/199/22
f 124/155/4 123/154/4 125/156/4 126/157/4
f 175/207/29 174/206/29 168/200/29 169/201/29
f 126/157/5 125/156/5 127/158/5 128/159/5
f 153/184/6 128/159/6 130/161/6 154/185/6
f 128/159/6 127/158/6 129/160/6 130/161/6
f 154/185/7 130/161/7 132/163/7 155/186/7
f 130/161/7 129/160/7 131/162/7 132/163/7
f 155/186/8 132/163/8 134/165/8 156/187/8
f 132/163/8 131/162/8 133/164/8 134/165/8
f 156/187/9 134/165/9 136/167/9 157/188/9
f 134/165/9 133/164/9 135/166/9 136/167/9
f 157/188/10 136/167/10 138/169/10 158/189/10
f 136/167/10 135/166/10 137/168/10 138/169/10
f 158/189/11 138/169/11 140/171/11 159/190/11
f 138/169/11 137/168/11 139/170/11 140/171/11
f 159/190/12 140/171/12 142/173/12 160/191/12
f 140/171/12 139/170/12 141/172/12 142/173/12
f 160/191/13 142/173/13 144/175/13 161/192/13
f 142/173/13 141/172/13 143/174/13 144/175/13
f 161/192/14 144/175/14 146/177/14 162/193/14
f 144/175/14 143/174/14 145/176/14 146/177/14
f 162/193/16 146/177/16 148/179/16 163/194/16
f 146/177/16 145/176/16 147/178/16 148/179/16
f 163/194/15 148/179/15 117/147/15 164/195/15
f 148/179/15 147/178/15 118/149/15 117/147/15
f 64/69/15 163/194/15 164/195/15 33/36/15
f 62/67/16 162/193/16 163/194/16 64/69/16
f 60/65/14 161/192/14 162/193/14 62/67/14
f 58/63/13 160/191/13 161/192/13 60/65/13
f 56/61/12 159/190/12 160/191/12 58/63/12
f 54/59/11 158/189/11 159/190/11 56/61/11
f 52/57/10 157/188/10 158/189/10 54/59/10
f 50/55/9 156/187/9 157/188/9 52/57/9
f 48/53/8 155/186/8 156/187/8 50/55/8
f 46/51/7 154/185/7 155/186/7 48/53/7
f 44/49/6 153/184/6 154/185/6 46/51/6
f 42/47/5 152/183/5 153/184/5 44/49/5
f 40/45/4 151/182/4 152/183/4 42/47/4
f 38/43/3 150/181/3 151/182/3 40/45/3
f 36/41/2 149/180/2 150/181/2 38/43/2
f 33/37/1 164/196/1 149/180/1 36/41/1
f 168/200/30 165/197/30 166/198/30 169/201/30
f 169/201/31 166/198/31 167/199/31 170/202/31
f 174/206/18 190/222/18 165/197/18 168/200/18
f 191/223/32 183/215/32 167/199/32 166/198/32
f 190/222/33 191/223/33 166/198/33 165/197/33
f 182/214/34 175/207/34 169/201/34 170/202/34
f 153/184/35 152/183/35 178/210/35 179/211/35
f 179/211/36 178/210/36 177/209/36 180/212/36
f 180/212/37 177/209/37 176/208/37 181/213/37
f 181/213/38 176/208/38 175/207/38 182/214/38
f 124/155/39 126/157/39 194/226/39 187/219/39
f 187/219/40 194/226/40 193/225/40 188/220/40
f 188/220/41 193/225/41 192/224/41 189/221/41
f 189/221/42 192/224/42 191/223/42 190/222/42
f 126/157/43 128/159/43 186/218/43 194/226/43
f 194/226/44 186/218/44 185/217/44 193/225/44
f 193/225/45 185/217/45 184/216/45 192/224/45
f 192/224/46 184/216/46 183/215/46 191/223/46
f 151/182/47 124/155/47 187/219/47 171/203/47
f 171/203/18 187/219/18 188/220/18 172/204/18
f 172/204/18 188/220/18 189/221/18 173/205/18
f 173/205/18 189/221/18 190/222/18 174/206/18
f 152/183/48 151/182/48 171/203/48 178/210/48
f 178/210/49 171/203/49 172/204/49 177/209/49
f 177/209/50 172/204/50 173/205/50 176/208/50
f 176/208/51 173/205/51 174/206/51 175/207/51
f 128/159/52 153/184/52 179/211/52 186/218/52
f 186/218/22 179/211/22 180/212/22 185/217/22
f 185/217/22 180/212/22 181/213/22 184/216/22
f 184/216/22 181/213/22 182/214/22 183/215/22
f 195/227/17 196/230/17 197/232/17 198/234/17 199/235/17 200/236/17 201/237/17 202/239/17 203/241/17 204/243/17 205/245/17 206/247/17 207/249/17 208/251/17 209/253/17 210/255/17
f 15/18/8 17/20/8 203/242/8 202/240/8
f 1/1/1 3/4/1 196/231/1 195/228/1
f 25/28/13 27/30/13 208/252/13 207/250/13
f 11/13/6 13/15/6 201/237/6 200/236/6
f 21/24/11 23/26/11 206/248/11 205/246/11
f 31/34/15 1/2/15 195/229/15 210/256/15
f 7/9/4 9/11/4 199/235/4 198/234/4
f 17/20/9 19/22/9 204/244/9 203/242/9
f 27/30/14 29/32/14 209/254/14 208/252/14
f 3/4/2 5/7/2 197/233/2 196/231/2
f 13/16/7 15/18/7 202/240/7 201/238/7
f 23/26/12 25/28/12 207/250/12 206/248/12
f 9/11/5 11/13/5 200/236/5 199/235/5
f 19/22/10 21/24/10 205/246/10 204/244/10
f 29/32/16 31/34/16 210/256/16 209/254/16
